# xmcd
#
# Track frame offsets: 
#        150
#        23511
#        92041
#        125352
#        163420
#        192308
#        234093
#
# Disc length: 3633 seconds
#
# Revision: 1
# Processed by: cddbd v1.5.2PL0 Copyright (c) Steve Scherf et al.
# Submitted via: ExactAudioCopy v0.99pb5
#
DISCID=4e0e2f07
DTITLE=Daniel Szabo Trio Meets Chris Potter - Contribution
DYEAR=2010
DGENRE=Jazz
TTITLE0=Attack of the Intervalls
TTITLE1=Strange Wind
TTITLE2=Camel Gallop
TTITLE3=Melodic
TTITLE4=Whirligig
TTITLE5=There was that too
TTITLE6=Bubble Song
EXTD=YEAR: 2010
EXTT0=
EXTT1=
EXTT2=
EXTT3=
EXTT4=
EXTT5=
EXTT6=
PLAYORDER=
